#!OML:ASF F:\VICON\USERDATA\INSTALL\rory3\rory3.ASF
:FULLY-SPECIFIED
:DEGREES
959
root -4.9379 17.1426 1.5223 -502.543 -9.62923 -541.602
lowerback -17.3325 0.482009 -0.662017
upperback -21.2544 -5.67411 -0.873663
thorax -14.5746 -5.48883 -0.191987
lowerneck -6.11684 3.00724 -0.449634
upperneck 13.6783 2.54345 7.82447
head 4.99668 1.5015 2.63891
rclavicle 2.73329e-015 -1.41137e-014
rhumerus 338.595 -39.4522 -347.748
rradius 16.3479
rwrist 19.5905
rhand 11.2965 -0.80814
rfingers 7.12502
rthumb 36.355 -27.0367
lclavicle 2.73329e-015 -1.41137e-014
lhumerus 65.4674 -10.191 24.3951
lradius 30.3637
lwrist -10.1182
lhand 5.78859 23.3004
lfingers 7.12502
lthumb 31.1219 50.6786
rfemur -55.8148 25.2455 8.5053
rtibia 23.09
rfoot -67.0334 -37.4152
rtoes 53.3298
lfemur -0.0561052 22.5939 -19.9534
ltibia 1.27222e-014
lfoot -29.6446 46.1236
ltoes 48.3358
960
root -4.93934 17.1453 1.52158 -502.508 -9.7662 -541.436
lowerback -17.3729 0.466448 -0.501225
upperback -21.2501 -5.69482 -0.787163
thorax -14.5442 -5.51177 -0.1893
lowerneck -6.33733 3.12611 -0.795449
upperneck 14.1405 2.63029 8.22484
head 5.15973 1.55293 2.83784
rclavicle -1.9133e-014 -5.36719e-015
rhumerus 339.241 -36.1971 -348.948
rradius 16.6406
rwrist 16.0439
rhand 10.9622 -1.45091
rfingers 7.12502
rthumb 36.0383 -27.758
lclavicle -1.9133e-014 -5.36719e-015
lhumerus 65.4441 -10.2139 24.1698
lradius 30.4362
lwrist -9.53602
lhand 5.70596 23.3534
lfingers 7.12502
lthumb 31.0431 50.7467
rfemur -55.7913 25.2889 8.64451
rtibia 22.925
rfoot -66.9678 -37.5438
rtoes 53.3611
lfemur -0.145538 22.615 -19.727
ltibia -1.59028e-014
lfoot -29.7287 46.4933
ltoes 48.2561
961
root -4.94008 17.1471 1.52222 -502.4 -9.74711 -541.367
lowerback -17.3362 0.506483 -0.460331
upperback -21.3667 -5.70792 -0.757754
thorax -14.7275 -5.54513 -0.154735
lowerneck -6.18819 2.40982 -0.982458
upperneck 14.6119 2.86003 8.22108
head 5.26844 2.17361 2.93522
rclavicle -1.82882e-014 -1.74931e-014
rhumerus 339.479 -35.0777 -349.37
rradius 16.7668
rwrist 14.9525
rhand 10.661 -1.7954
rfingers 7.12502
rthumb 35.753 -28.1722
lclavicle -1.82882e-014 -1.74931e-014
lhumerus 65.3323 -10.3187 24.2671
lradius 30.3814
lwrist -9.31506
lhand 5.65267 23.3298
lfingers 7.12502
lthumb 30.9923 50.7328
rfemur -55.9298 25.3532 8.54668
rtibia 22.8012
rfoot -66.836 -37.7516
rtoes 53.3238
lfemur -0.287894 22.7014 -19.6974
ltibia 0
lfoot -30.2444 46.6328
ltoes 47.9457
962
root -4.93809 17.147 1.52747 -502.291 -9.63519 -541.349
lowerback -17.2193 0.565058 -0.53967
upperback -21.5292 -5.71892 -0.789916
thorax -15.023 -5.57456 -0.106385
lowerneck -5.97094 2.38415 -1.00325
upperneck 14.9628 2.85298 8.21498
head 5.33964 2.19003 2.94185
rclavicle -3.02153e-014 -3.61788e-014
rhumerus 339.439 -35.0926 -349.371
rradius 16.7882
rwrist 15.2307
rhand 10.5631 -1.91791
rfingers 7.12502
rthumb 35.6603 -28.3172
lclavicle -3.02153e-014 -3.61788e-014
lhumerus 65.2302 -10.5614 24.253
lradius 30.366
lwrist -9.02513
lhand 5.49576 23.6757
lfingers 7.12502
lthumb 30.8427 51.107
rfemur -56.1429 25.4615 8.3471
rtibia 22.7675
rfoot -66.8415 -37.9688
rtoes 53.2166
lfemur -0.46138 22.8312 -19.7905
ltibia -2.54444e-014
lfoot -30.5487 46.8818
ltoes 47.5126
963
root -4.939 17.144 1.52888 -502.253 -9.68396 -541.383
lowerback -17.1619 0.544617 -0.601907
upperback -21.5943 -5.78048 -0.815872
thorax -15.1505 -5.61019 -0.0862194
lowerneck -5.66513 2.39601 -0.87457
upperneck 14.9873 2.8904 8.11508
head 5.29685 2.21149 2.88603
rclavicle 6.4605e-015 1.19271e-014
rhumerus 339.336 -35.5629 -349.22
rradius 16.7424
rwrist 16.0152
rhand 10.7234 -1.70018
rfingers 7.12502
rthumb 35.8122 -28.0626
lclavicle 6.4605e-015 1.19271e-014
lhumerus 65.2116 -10.6844 24.3736
lradius 30.2671
lwrist -8.86216
lhand 5.56427 23.8962
lfingers 7.12502
lthumb 30.908 51.3152
rfemur -56.2092 25.4612 8.28075
rtibia 22.8016
rfoot -66.9312 -38.0726
rtoes 53.1365
lfemur -0.567352 22.8018 -19.8124
ltibia -2.8625e-014
lfoot -30.2506 47.2347
ltoes 47.4232
